<svg xmlns="http://www.w3.org/2000/svg" xmlns:xlink="http://www.w3.org/1999/xlink" width="90" zoomAndPan="magnify" viewBox="0 0 67.5 67.499996" height="90" preserveAspectRatio="xMidYMid meet" version="1.0"><defs><g/><clipPath id="d5d8ae01c6"><path d="M 13.746094 13.539062 L 53.496094 13.539062 L 53.496094 53.289062 L 13.746094 53.289062 Z M 13.746094 13.539062 " clip-rule="nonzero"/></clipPath></defs><g clip-path="url(#d5d8ae01c6)"><path fill="#ffffff" d="M 47.273438 45.636719 C 44.28125 48.976562 40.195312 51.097656 35.765625 51.613281 C 35.417969 51.652344 35.066406 51.683594 34.71875 51.703125 C 34.484375 51.71875 34.242188 51.730469 34 51.734375 C 33.863281 51.738281 33.738281 51.738281 33.621094 51.738281 C 33.398438 51.738281 33.175781 51.734375 32.957031 51.726562 C 32.707031 51.71875 32.453125 51.703125 32.207031 51.683594 C 31.855469 51.65625 31.503906 51.621094 31.160156 51.574219 C 26.800781 50.988281 22.792969 48.839844 19.867188 45.523438 C 16.917969 42.179688 15.296875 37.878906 15.296875 33.414062 C 15.296875 28.519531 17.203125 23.917969 20.664062 20.453125 C 24.125 16.992188 28.726562 15.085938 33.621094 15.085938 C 38.515625 15.085938 43.117188 16.992188 46.578125 20.453125 C 50.039062 23.917969 51.945312 28.519531 51.945312 33.414062 C 51.945312 37.933594 50.285156 42.273438 47.273438 45.636719 Z M 51.933594 25.675781 C 50.933594 23.308594 49.5 21.183594 47.675781 19.359375 C 45.847656 17.535156 43.722656 16.101562 41.355469 15.101562 C 38.90625 14.0625 36.304688 13.539062 33.621094 13.539062 C 30.9375 13.539062 28.335938 14.0625 25.882812 15.101562 C 23.515625 16.101562 21.390625 17.535156 19.566406 19.359375 C 17.742188 21.183594 16.308594 23.308594 15.308594 25.675781 C 14.269531 28.128906 13.746094 30.730469 13.746094 33.414062 C 13.746094 38.253906 15.507812 42.921875 18.707031 46.550781 C 21.875 50.144531 26.226562 52.476562 30.953125 53.109375 C 31.324219 53.160156 31.707031 53.199219 32.089844 53.230469 C 32.355469 53.25 32.628906 53.265625 32.898438 53.273438 C 33.136719 53.285156 33.378906 53.289062 33.621094 53.289062 C 33.75 53.289062 33.882812 53.285156 34.03125 53.285156 C 34.292969 53.277344 34.558594 53.265625 34.8125 53.253906 C 35.1875 53.230469 35.570312 53.195312 35.945312 53.152344 C 40.75 52.59375 45.183594 50.292969 48.425781 46.671875 C 51.695312 43.023438 53.496094 38.316406 53.496094 33.414062 C 53.496094 30.730469 52.96875 28.125 51.933594 25.675781 " fill-opacity="1" fill-rule="nonzero"/></g><path fill="#ffffff" d="M 35.8125 20.554688 L 35.621094 20.554688 C 35.363281 20.597656 35.84375 26.085938 35.414062 26.085938 C 35.378906 26.085938 35.308594 26.085938 35.277344 26.085938 C 34.921875 26.085938 35.261719 20.53125 34.972656 20.554688 L 34.769531 20.554688 C 34.628906 20.554688 34.828125 26.085938 34.566406 26.085938 L 34.371094 26.085938 C 34.023438 26.085938 34.308594 20.554688 34.167969 20.554688 L 33.964844 20.554688 C 33.675781 20.53125 34.015625 26.085938 33.65625 26.085938 C 33.628906 26.085938 33.554688 26.085938 33.523438 26.085938 C 33.09375 26.085938 33.570312 20.597656 33.316406 20.554688 L 33.125 20.554688 C 32.914062 20.613281 32.492188 25.1875 32.601562 27.359375 C 32.664062 28.082031 33.535156 29.0625 33.535156 29.0625 C 33.722656 29.40625 33.8125 29.796875 33.789062 30.1875 L 33.4375 36.203125 C 33.398438 36.914062 33.375 37.625 33.375 38.335938 L 33.375 45.179688 C 33.375 45.78125 33.863281 46.273438 34.46875 46.273438 C 35.070312 46.273438 35.558594 45.78125 35.558594 45.179688 L 35.558594 38.335938 C 35.558594 37.625 35.539062 36.914062 35.5 36.203125 L 35.148438 30.1875 C 35.125 29.796875 35.210938 29.40625 35.402344 29.0625 C 35.402344 29.0625 36.28125 28.078125 36.335938 27.359375 C 36.445312 25.1875 36.023438 20.613281 35.8125 20.554688 " fill-opacity="1" fill-rule="nonzero"/><path fill="#ffffff" d="M 42.765625 20.882812 C 42.761719 20.71875 42.613281 20.519531 42.269531 20.519531 C 41.816406 20.519531 41.558594 20.773438 41.429688 20.976562 C 40.980469 21.6875 39.433594 24.367188 39.433594 30.726562 C 39.433594 31.25 40.066406 31.363281 40.304688 31.546875 C 40.460938 31.667969 40.605469 32.015625 40.589844 32.292969 L 40.359375 36.242188 C 40.316406 36.949219 40.296875 37.660156 40.296875 38.371094 L 40.296875 45.214844 C 40.296875 45.820312 40.785156 46.308594 41.390625 46.308594 C 41.992188 46.308594 42.480469 45.820312 42.480469 45.214844 L 42.480469 38.371094 C 42.480469 37.660156 42.460938 36.949219 42.417969 36.242188 C 42.210938 33.386719 42.207031 30.523438 42.40625 27.667969 C 42.59375 25.007812 42.792969 21.878906 42.765625 20.882812 " fill-opacity="1" fill-rule="nonzero"/><path fill="#ffffff" d="M 26.945312 20.542969 C 25.179688 20.542969 23.75 22.660156 23.75 25.269531 C 23.75 27.007812 25.328125 28.867188 25.328125 28.867188 L 26.011719 29.847656 C 26.203125 30.191406 26.289062 30.582031 26.265625 30.972656 L 25.914062 36.214844 C 25.875 36.925781 25.851562 37.636719 25.851562 38.34375 L 25.851562 45.1875 C 25.851562 45.792969 26.339844 46.28125 26.945312 46.28125 C 27.546875 46.28125 28.039062 45.792969 28.039062 45.1875 L 28.039062 38.34375 C 28.039062 37.636719 28.015625 36.925781 27.976562 36.214844 L 27.625 30.972656 C 27.601562 30.582031 27.6875 30.191406 27.878906 29.847656 L 28.5625 28.867188 C 28.5625 28.867188 30.140625 27.007812 30.140625 25.269531 C 30.140625 22.660156 28.710938 20.542969 26.945312 20.542969 " fill-opacity="1" fill-rule="nonzero"/><g fill="#ffffff" fill-opacity="1"><g transform="translate(18.027954, 11.01154)"><g><path d="M 0.507812 -0.273438 L 1.640625 -0.890625 C 2.960938 -1.605469 3.304688 -2.710938 2.640625 -3.933594 C 1.949219 -5.210938 0.855469 -5.546875 -0.480469 -4.820312 L -1.621094 -4.203125 Z M 0.863281 -1.304688 L -0.566406 -3.9375 L -0.140625 -4.167969 C 0.824219 -4.691406 1.414062 -4.515625 1.917969 -3.582031 C 2.453125 -2.601562 2.089844 -1.96875 1.21875 -1.5 Z M 0.863281 -1.304688 "/></g></g></g><g fill="#ffffff" fill-opacity="1"><g transform="translate(23.333559, 8.398395)"><g><path d="M 0.546875 -0.183594 L 1.304688 -0.445312 L -0.132812 -4.675781 L -0.890625 -4.417969 Z M 0.546875 -0.183594 "/></g></g></g><g fill="#ffffff" fill-opacity="1"><g transform="translate(26.578009, 7.309718)"><g><path d="M 0.570312 -0.0898438 L 1.332031 -0.210938 L 0.84375 -3.304688 L 3.179688 -0.5 L 3.976562 -0.625 L 3.28125 -5.039062 L 2.519531 -4.921875 L 3.003906 -1.828125 L 0.664062 -4.628906 L -0.125 -4.503906 Z M 0.570312 -0.0898438 "/></g></g></g><g fill="#ffffff" fill-opacity="1"><g transform="translate(32.527945, 6.55432)"><g><path d="M 0.574219 0.0273438 L 3.542969 0.175781 L 3.582031 -0.582031 L 1.414062 -0.691406 L 1.46875 -1.796875 L 3.488281 -1.695312 L 3.523438 -2.433594 L 1.503906 -2.53125 L 1.5625 -3.660156 L 3.726562 -3.554688 L 3.765625 -4.289062 L 0.792969 -4.4375 Z M 0.574219 0.0273438 "/></g></g></g><g fill="#ffffff" fill-opacity="1"><g transform="translate(37.931997, 7.026359)"><g/></g></g><g fill="#ffffff" fill-opacity="1"><g transform="translate(40.960145, 7.731164)"><g><path d="M 0.546875 0.183594 L 1.308594 0.4375 L 2.726562 -3.800781 L 1.960938 -4.058594 Z M 0.546875 0.183594 "/></g></g></g><g fill="#ffffff" fill-opacity="1"><g transform="translate(44.201975, 8.82762)"><g><path d="M 0.507812 0.273438 L 1.1875 0.640625 L 2.671875 -2.121094 L 2.835938 1.527344 L 3.542969 1.90625 L 5.660156 -2.027344 L 4.980469 -2.394531 L 3.5 0.359375 L 3.328125 -3.285156 L 2.625 -3.664062 Z M 0.507812 0.273438 "/></g></g></g><g fill="#ffffff" fill-opacity="1"><g transform="translate(5.657776, 47.970106)"><g><path d="M 1.851562 3.851562 L 2.535156 4.046875 L 2.730469 3.1875 C 3.214844 3.226562 3.761719 3.082031 4.253906 2.789062 C 5.300781 2.167969 5.890625 1.027344 5.132812 -0.242188 C 4.378906 -1.511719 3.101562 -1.542969 2.054688 -0.921875 C 1.007812 -0.296875 0.425781 0.839844 1.179688 2.109375 C 1.421875 2.515625 1.726562 2.800781 2.078125 2.972656 Z M 1.832031 1.722656 C 1.339844 0.898438 1.738281 0.203125 2.464844 -0.230469 C 3.1875 -0.660156 3.992188 -0.679688 4.480469 0.144531 C 4.972656 0.96875 4.574219 1.667969 3.851562 2.097656 C 3.546875 2.277344 3.253906 2.375 2.933594 2.382812 L 3.105469 1.589844 L 2.429688 1.386719 L 2.265625 2.199219 C 2.113281 2.09375 1.960938 1.941406 1.832031 1.722656 Z M 1.832031 1.722656 "/></g></g></g><g fill="#ffffff" fill-opacity="1"><g transform="translate(9.549754, 53.979351)"><g><path d="M 1.449219 1.632812 C 2.273438 2.503906 3.140625 2.390625 3.960938 1.617188 L 5.921875 -0.230469 L 5.371094 -0.8125 L 3.453125 0.992188 C 2.929688 1.488281 2.507812 1.625 2.015625 1.101562 C 1.523438 0.578125 1.683594 0.164062 2.210938 -0.328125 L 4.128906 -2.136719 L 3.578125 -2.71875 L 1.59375 -0.847656 C 0.796875 -0.0976562 0.628906 0.757812 1.449219 1.632812 Z M 1.449219 1.632812 "/></g></g></g><g fill="#ffffff" fill-opacity="1"><g transform="translate(14.188481, 58.570648)"><g><path d="M 0.03125 0.0234375 L 0.75 0.523438 L 1.589844 -0.0742188 L 3.015625 0.917969 L 2.742188 1.914062 L 3.453125 2.410156 L 4.550781 -2.277344 L 4.054688 -2.621094 Z M 2.207031 -0.480469 L 3.628906 -1.480469 L 3.183594 0.199219 Z M 2.207031 -0.480469 "/></g></g></g><g fill="#ffffff" fill-opacity="1"><g transform="translate(19.552086, 62.014216)"><g><path d="M 0.527344 0.234375 L 3.003906 1.339844 L 3.3125 0.648438 L 1.570312 -0.132812 L 3.082031 -3.519531 L 2.347656 -3.847656 Z M 0.527344 0.234375 "/></g></g></g><g fill="#ffffff" fill-opacity="1"><g transform="translate(24.577202, 64.029376)"><g><path d="M 0.554688 0.152344 L 1.328125 0.367188 L 2.519531 -3.941406 L 1.742188 -4.15625 Z M 0.554688 0.152344 "/></g></g></g><g fill="#ffffff" fill-opacity="1"><g transform="translate(28.480679, 65.010326)"><g><path d="M 1.457031 0.164062 L 2.253906 0.253906 L 2.675781 -3.472656 L 4.0625 -3.316406 L 4.144531 -4.03125 L 0.5625 -4.433594 L 0.484375 -3.722656 L 1.875 -3.5625 Z M 1.457031 0.164062 "/></g></g></g><g fill="#ffffff" fill-opacity="1"><g transform="translate(34.33402, 65.483347)"><g><path d="M 1.664062 -0.136719 L 2.5 -0.207031 L 2.355469 -1.941406 L 3.800781 -4.796875 L 2.824219 -4.714844 L 1.867188 -2.675781 L 0.597656 -4.535156 L -0.371094 -4.453125 L 1.523438 -1.875 Z M 1.664062 -0.136719 "/></g></g></g><g fill="#ffffff" fill-opacity="1"><g transform="translate(40.520214, 64.709189)"><g/></g></g><g fill="#ffffff" fill-opacity="1"><g transform="translate(44.020413, 63.785041)"><g><path d="M 0.53125 -0.21875 L 1.273438 -0.527344 L 0.5625 -2.25 L 2.488281 -3.050781 L 2.207031 -3.730469 L 0.277344 -2.933594 L -0.152344 -3.976562 L 2.035156 -4.878906 L 1.753906 -5.5625 L -1.175781 -4.351562 Z M 0.53125 -0.21875 "/></g></g></g><g fill="#ffffff" fill-opacity="1"><g transform="translate(49.564837, 61.29875)"><g><path d="M 2.027344 -1.3125 C 3.246094 -2.148438 3.195312 -3.425781 2.507812 -4.429688 C 1.820312 -5.433594 0.648438 -5.941406 -0.570312 -5.109375 C -1.789062 -4.273438 -1.738281 -2.996094 -1.050781 -1.992188 C -0.363281 -0.988281 0.8125 -0.480469 2.027344 -1.3125 Z M 1.625 -1.902344 C 0.835938 -1.359375 0.125 -1.773438 -0.351562 -2.46875 C -0.828125 -3.164062 -0.957031 -3.976562 -0.167969 -4.519531 C 0.625 -5.058594 1.332031 -4.644531 1.808594 -3.953125 C 2.285156 -3.253906 2.417969 -2.441406 1.625 -1.902344 Z M 1.625 -1.902344 "/></g></g></g><g fill="#ffffff" fill-opacity="1"><g transform="translate(55.221301, 57.123073)"><g><path d="M 1.6875 -1.730469 C 2.6875 -2.816406 2.355469 -4.050781 1.460938 -4.878906 C 0.566406 -5.703125 -0.691406 -5.9375 -1.691406 -4.851562 C -2.695312 -3.769531 -2.363281 -2.535156 -1.46875 -1.707031 C -0.570312 -0.882812 0.683594 -0.648438 1.6875 -1.730469 Z M 1.164062 -2.214844 C 0.511719 -1.511719 -0.269531 -1.757812 -0.890625 -2.332031 C -1.507812 -2.902344 -1.816406 -3.664062 -1.167969 -4.367188 C -0.515625 -5.070312 0.265625 -4.824219 0.886719 -4.253906 C 1.507812 -3.679688 1.8125 -2.917969 1.164062 -2.214844 Z M 1.164062 -2.214844 "/></g></g></g><g fill="#ffffff" fill-opacity="1"><g transform="translate(59.788805, 51.79699)"><g><path d="M 0.289062 -0.496094 L 0.941406 -1.613281 C 1.695312 -2.910156 1.414062 -4.035156 0.210938 -4.734375 C -1.042969 -5.464844 -2.152344 -5.183594 -2.917969 -3.867188 L -3.570312 -2.75 Z M 0.0585938 -1.5625 L -2.53125 -3.070312 L -2.289062 -3.488281 C -1.734375 -4.4375 -1.136719 -4.59375 -0.222656 -4.058594 C 0.742188 -3.496094 0.761719 -2.769531 0.261719 -1.914062 Z M 0.0585938 -1.5625 "/></g></g></g></svg>