<svg xmlns="http://www.w3.org/2000/svg" xmlns:xlink="http://www.w3.org/1999/xlink" width="700" zoomAndPan="magnify" viewBox="0 0 525 525.000007" height="700" preserveAspectRatio="xMidYMid meet" version="1.0"><defs><g/><clipPath id="id1"><path d="M 120 123 L 413 123 L 413 413.746094 L 120 413.746094 Z M 120 123 " clip-rule="nonzero"/></clipPath><clipPath id="id2"><path d="M 29.839844 314.277344 L 80.746094 314.277344 L 80.746094 365.179688 L 29.839844 365.179688 Z M 29.839844 314.277344 " clip-rule="nonzero"/></clipPath><clipPath id="id3"><path d="M 443.890625 314.277344 L 494.792969 314.277344 L 494.792969 365.179688 L 443.890625 365.179688 Z M 443.890625 314.277344 " clip-rule="nonzero"/></clipPath></defs><g clip-path="url(#id1)"><path fill="#fae02d" d="M 382.144531 358.140625 C 356.183594 330.15625 335.832031 294.414062 322.421875 278.628906 C 298.898438 250.945312 275.664062 238.210938 275.664062 238.210938 C 293.144531 243.667969 308.320312 252.28125 321.207031 261.964844 C 382.527344 267.007812 381.898438 219.335938 381.898438 219.335938 C 321.109375 228.632812 329.394531 160.425781 285.652344 177.273438 C 260.5625 186.9375 245.988281 187.386719 245.085938 165.546875 C 245.085938 165.546875 169.261719 195.8125 179.65625 247.136719 C 179.65625 247.136719 170.425781 249.5625 158.425781 256.871094 C 147.355469 263.621094 141.449219 273.6875 141.449219 273.6875 C 161.417969 277.878906 176.796875 283.386719 188.578125 290.789062 C 203.152344 299.941406 207.832031 319.328125 198.535156 333.8125 C 198.289062 334.195312 198.039062 334.570312 197.777344 334.949219 C 182.898438 356.40625 200.0625 379.03125 221.261719 370.050781 C 246.523438 359.34375 249.15625 332.253906 249.15625 332.253906 C 256.347656 344.625 244.699219 373.167969 243.199219 413.761719 C 184.339844 404.382812 134.878906 359.246094 122.9375 297.363281 C 107.675781 218.296875 159.425781 141.839844 238.527344 126.582031 C 317.628906 111.328125 394.121094 163.058594 409.382812 242.125 C 417.574219 284.574219 406.445312 326.261719 382.144531 358.140625 " fill-opacity="1" fill-rule="nonzero"/></g><path fill="#fae02d" d="M 227.535156 246.363281 C 227.003906 250.828125 222.949219 254.019531 218.476562 253.484375 C 214.011719 252.945312 210.816406 248.894531 211.351562 244.429688 C 211.890625 239.957031 215.949219 236.769531 220.417969 237.300781 C 224.882812 237.839844 228.078125 241.890625 227.535156 246.363281 " fill-opacity="1" fill-rule="nonzero"/><g clip-path="url(#id2)"><path fill="#fae02d" d="M 55.292969 314.277344 C 41.234375 314.277344 29.839844 325.671875 29.839844 339.730469 C 29.839844 353.785156 41.234375 365.179688 55.292969 365.179688 C 69.347656 365.179688 80.746094 353.785156 80.746094 339.730469 C 80.746094 325.671875 69.347656 314.277344 55.292969 314.277344 " fill-opacity="1" fill-rule="nonzero"/></g><g clip-path="url(#id3)"><path fill="#fae02d" d="M 469.34375 314.277344 C 455.285156 314.277344 443.890625 325.671875 443.890625 339.730469 C 443.890625 353.785156 455.285156 365.179688 469.34375 365.179688 C 483.398438 365.179688 494.792969 353.785156 494.792969 339.730469 C 494.792969 325.671875 483.398438 314.277344 469.34375 314.277344 " fill-opacity="1" fill-rule="nonzero"/></g><g fill="#e6e6e6" fill-opacity="1"><g transform="translate(89.833668, 188.978601)"><g><path d="M -28.578125 -45.839844 L -38.648438 -30.621094 L 2.324219 -3.511719 L 12.394531 -18.730469 L -1.65625 -28.023438 L 4.542969 -37.390625 L 18.589844 -28.09375 L 28.660156 -43.3125 L -12.3125 -70.421875 L -22.382812 -55.203125 L -8.335938 -45.910156 L -14.53125 -36.542969 Z M -28.578125 -45.839844 "/></g></g></g><g fill="#e6e6e6" fill-opacity="1"><g transform="translate(116.933065, 146.112382)"><g><path d="M 12.773438 -43.320312 C 15.972656 -39.589844 15.59375 -34.640625 12.394531 -31.902344 C 9.199219 -29.160156 4.25 -29.539062 1.054688 -33.265625 C -2.144531 -36.996094 -1.765625 -41.945312 1.429688 -44.683594 C 4.625 -47.425781 9.574219 -47.046875 12.773438 -43.320312 Z M 27.6875 -56.113281 C 18.320312 -67.035156 2.484375 -68.246094 -9.765625 -57.734375 C -22.019531 -47.226562 -23.230469 -31.390625 -13.863281 -20.472656 C -4.496094 -9.550781 11.339844 -8.339844 23.589844 -18.847656 C 35.84375 -29.359375 37.054688 -45.195312 27.6875 -56.113281 Z M 27.6875 -56.113281 "/></g></g></g><g fill="#e6e6e6" fill-opacity="1"><g transform="translate(158.850939, 110.33802)"><g><path d="M -20.183594 -44.8125 L -13.136719 -30.289062 L -1.140625 -36.109375 L 13.257812 -6.433594 L 29.675781 -14.402344 L 15.273438 -44.078125 L 27.273438 -49.898438 L 20.226562 -64.421875 Z M -20.183594 -44.8125 "/></g></g></g><g fill="#e6e6e6" fill-opacity="1"><g transform="translate(199.376638, 91.792683)"><g/></g></g><g fill="#e6e6e6" fill-opacity="1"><g transform="translate(208.813211, 86.457695)"><g><path d="M 34.09375 -4.496094 L 54.273438 -7.15625 L 47.851562 -55.863281 L 29.757812 -53.476562 L 32.601562 -31.90625 L 17.929688 -51.917969 L -2.246094 -49.257812 L 4.175781 -0.550781 L 22.265625 -2.9375 L 19.421875 -24.507812 Z M 34.09375 -4.496094 "/></g></g></g><g fill="#e6e6e6" fill-opacity="1"><g transform="translate(263.731544, 80.856099)"><g/></g></g><g fill="#e6e6e6" fill-opacity="1"><g transform="translate(274.990147, 80.109653)"><g><path d="M 21.378906 -9.65625 C 14.476562 -10.914062 10.460938 -16.285156 10.460938 -16.285156 L 2.011719 -7.125 C 2.011719 -7.125 6.714844 2.292969 21.90625 5.066406 C 33.988281 7.269531 42.96875 1.058594 44.414062 -6.882812 C 47.1875 -22.070312 28.542969 -25.472656 29.171875 -28.921875 C 29.363281 -29.957031 30.585938 -30.804688 32.3125 -30.492188 C 37.144531 -29.609375 40.597656 -25.054688 40.597656 -25.054688 L 49.042969 -34.214844 C 49.042969 -34.214844 44.214844 -42.945312 31.789062 -45.210938 C 19.703125 -47.414062 10.726562 -41.203125 9.277344 -33.265625 C 6.507812 -18.074219 25.148438 -14.675781 24.519531 -11.222656 C 24.328125 -10.1875 23.105469 -9.339844 21.378906 -9.65625 Z M 21.378906 -9.65625 "/></g></g></g><g fill="#e6e6e6" fill-opacity="1"><g transform="translate(313.867248, 86.348864)"><g><path d="M 42.796875 -35.914062 C 32.46875 -40.320312 23.15625 -43.53125 23.15625 -43.53125 L 3.871094 1.652344 L 20.65625 8.816406 L 26.855469 -5.707031 C 26.855469 -5.707031 29.945312 -4.007812 32.527344 -2.90625 C 43.5 1.777344 52.710938 -1.925781 56.703125 -11.285156 C 60.699219 -20.644531 56.996094 -29.851562 42.796875 -35.914062 Z M 31.949219 -17.652344 L 34.980469 -24.75 L 37.5625 -23.648438 C 39.820312 -22.683594 40.746094 -20.382812 39.921875 -18.445312 C 39.09375 -16.507812 36.792969 -15.585938 34.53125 -16.546875 Z M 31.949219 -17.652344 "/></g></g></g><g fill="#e6e6e6" fill-opacity="1"><g transform="translate(355.869974, 105.036712)"><g><path d="M 45.863281 -28.539062 L 30.65625 -38.621094 L 3.507812 2.328125 L 18.71875 12.410156 Z M 45.863281 -28.539062 "/></g></g></g><g fill="#e6e6e6" fill-opacity="1"><g transform="translate(375.808469, 116.586465)"><g><path d="M 19.074219 -15.730469 C 9.085938 -5.375 9.371094 10.503906 19.976562 20.734375 C 29.574219 29.996094 39.480469 28.824219 39.480469 28.824219 L 42.675781 13.378906 C 42.675781 13.378906 36.96875 13.234375 33.429688 9.824219 C 29.894531 6.414062 29.808594 1.449219 33.21875 -2.085938 C 36.628906 -5.621094 41.589844 -5.710938 45.125 -2.296875 C 48.660156 1.113281 49.011719 6.8125 49.011719 6.8125 L 64.332031 3.066406 C 64.332031 3.066406 65.144531 -6.875 55.550781 -16.136719 C 44.941406 -26.367188 29.066406 -26.082031 19.074219 -15.730469 Z M 19.074219 -15.730469 "/></g></g></g><g fill="#e6e6e6" fill-opacity="1"><g transform="translate(408.60198, 147.497412)"><g><path d="M 51.988281 -9.855469 L 40.664062 -27.605469 L 24.28125 2.824219 L 8.304688 13.015625 L 18.117188 28.402344 L 34.09375 18.210938 L 68.59375 16.179688 L 57.269531 -1.570312 L 42.792969 1.835938 Z M 51.988281 -9.855469 "/></g></g></g><g fill="#e6e6e6" fill-opacity="1"><g transform="translate(88.913615, 416.117787)"><g><path d="M 5.601562 5.949219 L 15.398438 -3.277344 L 24.90625 6.820312 L 28.304688 3.625 L 18.792969 -6.472656 L 25.105469 -12.414062 L 35.800781 -1.058594 L 39.226562 -4.285156 L 24.9375 -19.457031 L 2.007812 2.132812 Z M 5.601562 5.949219 "/></g></g></g><g fill="#e6e6e6" fill-opacity="1"><g transform="translate(110.625901, 438.65745)"><g><path d="M 24.777344 2.101562 C 28.195312 2.96875 31.539062 1.878906 34.128906 -1.390625 C 38.101562 -6.402344 36.675781 -11.117188 32.050781 -14.78125 L 21.859375 -22.859375 L 2.296875 1.820312 L 6.40625 5.078125 L 14.378906 -4.984375 L 20.265625 -0.316406 L 16.367188 12.972656 L 20.796875 16.488281 Z M 23.046875 -15.914062 L 28.578125 -11.53125 C 31.328125 -9.351562 31.851562 -6.828125 29.980469 -4.464844 C 28.085938 -2.070312 25.539062 -1.984375 22.757812 -4.1875 L 17.226562 -8.574219 Z M 23.046875 -15.914062 "/></g></g></g><g fill="#e6e6e6" fill-opacity="1"><g transform="translate(137.67366, 459.072412)"><g><path d="M 6.933594 4.324219 L 23.601562 -22.398438 L 19.152344 -25.171875 L 2.488281 1.550781 Z M 6.933594 4.324219 "/></g></g></g><g fill="#e6e6e6" fill-opacity="1"><g transform="translate(152.05389, 468.126905)"><g><path d="M 21.398438 10.359375 L 23.449219 6.125 L 9.40625 -0.671875 L 13.21875 -8.550781 L 25.703125 -2.503906 L 27.734375 -6.703125 L 15.253906 -12.746094 L 19.03125 -20.550781 L 33.074219 -13.75 L 35.125 -17.984375 L 16.363281 -27.070312 L 2.636719 1.277344 Z M 21.398438 10.359375 "/></g></g></g><g fill="#e6e6e6" fill-opacity="1"><g transform="translate(181.054634, 481.815405)"><g><path d="M 11.398438 3.515625 C 21.535156 6.644531 28.722656 2.945312 31.695312 -6.679688 C 34.675781 -16.34375 30.820312 -23.449219 20.722656 -26.566406 L 12.085938 -29.230469 L 2.800781 0.863281 Z M 15.707031 -23.1875 L 19.257812 -22.09375 C 25.644531 -20.121094 29.007812 -15.757812 26.683594 -8.226562 C 24.164062 -0.0625 18.859375 0.894531 12.746094 -0.992188 L 9.195312 -2.085938 Z M 15.707031 -23.1875 "/></g></g></g><g fill="#e6e6e6" fill-opacity="1"><g transform="translate(215.776517, 491.579351)"><g/></g></g><g fill="#e6e6e6" fill-opacity="1"><g transform="translate(232.720016, 494.938531)"><g><path d="M 16.695312 1.554688 C 24.234375 2.015625 29.140625 -1.820312 30.476562 -8.148438 L 24.75 -8.5 C 23.851562 -4.625 20.851562 -2.863281 16.894531 -3.105469 C 10.675781 -3.484375 7.714844 -8.503906 8.128906 -15.300781 C 8.539062 -22.058594 12.085938 -26.640625 18.308594 -26.257812 C 22.261719 -26.019531 25.027344 -23.90625 25.480469 -20.488281 L 31.210938 -20.136719 C 30.664062 -26.125 26.214844 -30.449219 18.675781 -30.910156 C 8.414062 -31.535156 3.257812 -24.242188 2.730469 -15.628906 C 2.207031 -7.019531 6.4375 0.929688 16.695312 1.554688 Z M 16.695312 1.554688 "/></g></g></g><g fill="#e6e6e6" fill-opacity="1"><g transform="translate(270.801713, 496.667037)"><g><path d="M 8.128906 -0.863281 L 6.707031 -14.246094 L 20.867188 -15.75 L 22.289062 -2.367188 L 27.5 -2.921875 L 24.171875 -34.238281 L 18.960938 -33.6875 L 20.375 -20.386719 L 6.210938 -18.882812 L 4.800781 -32.179688 L -0.414062 -31.628906 L 2.914062 -0.308594 Z M 8.128906 -0.863281 "/></g></g></g><g fill="#e6e6e6" fill-opacity="1"><g transform="translate(307.109182, 491.871761)"><g><path d="M 7.96875 -1.820312 L 0.949219 -32.523438 L -4.160156 -31.355469 L 2.855469 -0.652344 Z M 7.96875 -1.820312 "/></g></g></g><g fill="#e6e6e6" fill-opacity="1"><g transform="translate(323.959034, 488.270449)"><g><path d="M 15.949219 -5.167969 C 23.058594 -7.722656 26.050781 -13.1875 24.777344 -19.527344 L 19.378906 -17.585938 C 20.085938 -13.671875 18.023438 -10.871094 14.292969 -9.527344 C 8.429688 -7.417969 3.726562 -10.859375 1.421875 -17.269531 C -0.871094 -23.636719 0.578125 -29.246094 6.441406 -31.355469 C 10.171875 -32.699219 13.546875 -31.851562 15.3125 -28.886719 L 20.714844 -30.832031 C 17.847656 -36.117188 12.050781 -38.328125 4.941406 -35.773438 C -4.730469 -32.292969 -6.585938 -23.554688 -3.667969 -15.4375 C -0.746094 -7.320312 6.28125 -1.6875 15.949219 -5.167969 Z M 15.949219 -5.167969 "/></g></g></g><g fill="#e6e6e6" fill-opacity="1"><g transform="translate(359.451617, 474.767574)"><g><path d="M 7.15625 -3.945312 L 0.0078125 -16.921875 L 17.785156 -9.800781 L 23.570312 -12.988281 L 3.882812 -20.753906 L 7.9375 -40.332031 L 2.261719 -37.203125 L -1.226562 -19.164062 L -8.039062 -31.527344 L -12.632812 -29 L 2.566406 -1.414062 Z M 7.15625 -3.945312 "/></g></g></g><g fill="#e6e6e6" fill-opacity="1"><g transform="translate(388.546065, 458.151052)"><g><path d="M 18.953125 -14.351562 L 16.113281 -18.105469 L 3.675781 -8.683594 L -1.609375 -15.660156 L 9.449219 -24.035156 L 6.632812 -27.753906 L -4.425781 -19.378906 L -9.65625 -26.289062 L 2.78125 -35.710938 L -0.0585938 -39.460938 L -16.675781 -26.875 L 2.335938 -1.769531 Z M 18.953125 -14.351562 "/></g></g></g><g fill="#e6e6e6" fill-opacity="1"><g transform="translate(413.948597, 438.530439)"><g><path d="M 5.6875 -5.871094 L -11.75 -22.753906 L 14.960938 -15.449219 L 19.355469 -19.984375 L -3.269531 -41.894531 L -6.886719 -38.160156 L 10.546875 -21.273438 L -16.160156 -28.582031 L -20.585938 -24.015625 L 2.039062 -2.105469 Z M 5.6875 -5.871094 "/></g></g></g></svg>